<svg xmlns="http://www.w3.org/2000/svg" viewBox="0 0 168 40" width="168" height="40">
  <!-- Icon mark background -->
  <rect width="40" height="40" rx="10" fill="#1A6FB5"/>
  <!-- Truck icon (Lucide Truck scaled to 20x20, centered at 10,10) -->
  <g transform="translate(10,10) scale(0.8333)" fill="none" stroke="white" stroke-width="2" stroke-linecap="round" stroke-linejoin="round">
    <path d="M14 18V6a2 2 0 0 0-2-2H4a2 2 0 0 0-2 2v11a1 1 0 0 0 1 1h2"/>
    <path d="M15 18H9"/>
    <path d="M19 18h2a1 1 0 0 0 1-1v-3.65a1 1 0 0 0-.22-.624l-3.48-4.35A1 1 0 0 0 17.52 8H14"/>
    <circle cx="17" cy="18" r="2"/>
    <circle cx="7" cy="18" r="2"/>
  </g>
  <!-- Wordmark -->
  <text
    x="52"
    y="26"
    font-family="'DM Sans', system-ui, sans-serif"
    font-size="20"
    font-weight="700"
    letter-spacing="-0.5"
    fill="#0F2B46"
  >SwiftHaul</text>
</svg>
